<?xml version="1.0" encoding="UTF-8"?>
<svg id="Layer_1" data-name="Layer 1" xmlns="http://www.w3.org/2000/svg" xmlns:xlink="http://www.w3.org/1999/xlink" viewBox="0 0 881.33 881.33">
  <defs>
    <style>
      .cls-1 {
        mask: url(#mask);
      }

      .cls-2 {
        filter: url(#luminosity-invert);
      }
    </style>
    <filter id="luminosity-invert" x="0" y="0" width="881.33" height="881.33" color-interpolation-filters="sRGB" filterUnits="userSpaceOnUse">
      <feColorMatrix result="cm" values="-1 0 0 0 1 0 -1 0 0 1 0 0 -1 0 1 0 0 0 1 0"/>
    </filter>
    <mask id="mask" x="0" y="0" width="881.33" height="881.33" maskUnits="userSpaceOnUse">
      <g class="cls-2">
        <g>
          <path d="M277.08,193.39c39.12-25.32,81.38-41.11,127.4-46.06,84.57-9.09,160.24,12.84,225.58,67.46,56.57,47.29,91.07,108,102.12,180.85,12.86,84.75-6.98,161.99-60.05,229.54-46.19,58.8-106.74,95.66-180.52,108.32-88.5,15.18-168.88-5.2-239.02-61.65-53.93-43.41-89.31-99.43-102.78-167.39-21.68-109.4,8.49-203.41,88.83-281.04,11.66-11.26,24.64-20.9,38.45-30.03M620.39,577.26c38.07-52.31,52.42-110.49,41.59-174.25-10.02-58.99-39.68-106.7-87.48-142.47-50.49-37.78-107.74-51.41-169.88-42.19-55.03,8.17-101.13,34.12-137.06,76.47-43.6,51.38-60.63,111.2-51.99,178.08,5.54,42.92,22.6,81.05,50.55,113.92,39.63,46.6,89.99,73.6,151.12,79.75,30.17,3.04,59.83.21,88.83-8.81,46.5-14.47,84.18-41.55,114.33-80.51M664.13,559.08c9.51,4.02,18.21,8.91,20.93,21.35,28.75-51.93,40.03-106.04,35.21-163.72-4.98-.43-8.6,2.46-13.67,1.64,3.61-2.63,7.22-3.92,9.15-7.21,2.2-3.75,1.55-8.34-1.51-10.31-3.17-2.04-7.48-.8-9.73,3.19-1.62,2.88-2.75,6.05-4.03,9.11-4.74,11.34-11.68,13.34-21.52,5.88,4.06,49.85-5.49,96.7-30.21,141.5,5.51-3.1,10.03-3.27,15.39-1.46M162.94,498.68c5.72,26.98,14.85,52.7,28.35,77.17,10.19-12.42,22.37-17.3,37.68-11.8-1.27-6.91-6.91-5.75-11.62-6.48,2.21-3.03,5.89-2.61,7.88-5.06-.21-2.4-1.54-4.36-2.55-6.42-10.26-21.1-17.04-43.26-20.87-66.41-2.43-14.69-3.13-29.44-2.75-44.26.09-3.74-1.03-5.17-4.91-4.48-2.91.52-5.85,1.07-8.92.66-10.26-1.39-18.57-5.73-23.69-15.66-2.44,6.52.59,10.23,6.34,13.01-4.06,1.46-6.7-1.09-9.99.24-1.49,22.98.44,45.88,5.04,69.47M555.71,189.54c-.38,1.23-.43,2.66-1.94,3.23-1.18-1.08-.63-2.51-.86-3.76-.86-4.85-4.78-6.4-8.67-7.08-3.36-.59-3.03,3.28-4.17,5.24-.99,1.71-1.59,3.67-2.19,5.57-.55,1.74-2.31,3.67.42,5.19,2.42,1.35,4.8,2.33,7.43.36,1.2-.9,1.56-2.92,4.32-3.03-2.2,5.19-3.47,10.19-6.45,14.58-1.11-.82-.97-1.5-.82-2.14,1.04-4.3-1.48-6.14-5.02-7.19-4.24-1.26-3.83,2.68-4.96,4.7-1.05,1.87-1.63,4-2.44,6.01-1.7,4.21.01,7.24,3.65,9.12,7.24,3.75,14.65,7.19,21.93,10.87,1.97,1,3.29.87,4.66-.99,4.11-5.59,9.56-9.69,15.31-13.45,3.35-2.19,6.6-4.52,9.04-7.8,3.2-4.32,2.89-7.19-1.77-9.85-7.52-4.29-15.28-8.15-22.85-12.35-2.78-1.54-3.91-.58-4.61,2.77M481.09,195c-3.25-12.8,1.4-22.15,15.25-29.54-13.38-2.75-26.13-4.61-39.08-5.06-.49,3.14,1.39,5.75-.43,8.41-1.76-.94-1.87-2.81-2.78-4.1-1.35-1.93-3.15-3.05-5.53-2.52-2.58.58-1.86,2.85-1.89,4.53-.16,9.15-.23,18.3-.3,27.45-.04,4.67,2.38,6.92,6.95,7.31,5.95.52,11.88,1.36,17.84,1.81,4.97.37,9.85,2.07,15.57,1.61-2.25-3.32-4.3-5.96-5.61-9.9M279.06,673.83c3.19,1.42,1.82-1.51,2.03-2.38,3-12.78,12.08-21.94,23.92-24.03.97-.17,2.39.55,2.85-1.01-4.16-5.4-8.56-1.01-14.13.63,2.61-3.69,4.3-6.07,6.31-8.92-5.37-4.17-10.53-8.19-15.42-11.99-3.45,1.63-3.78,5.58-6.95,6.67-.77-1.64.02-2.68.3-3.76,1.28-4.82-1.65-7.83-5.04-9.92-3.53-2.18-4.49,2.19-6.49,3.73-1.42,1.1-2.47,2.69-3.64,4.1-1.24,1.48-3.2,2.88-1.11,5.06,1.98,2.06,3.89,4.31,7.25,2.3,1.16-.69,2.12-2.32,4.4-1.12-3.83,4.26-7.17,8.73-12.13,12.08,2.83-5.52,2.72-9.85-3.56-12.58-3.69,2.74-6.48,6.5-9.6,9.92-1.2,1.32-1.39,2.54-.05,3.9,3.03,3.08,6.08,5.88,10.88,3.42.9-.46,2.02-1.41,3.05.1-.94,2.57-4.46,2.99-5.09,6.51,6.55,6.21,14.16,11.53,22.2,17.29M206.24,308.26c-3.66-4.01-5.33-8.96-6.25-15.63-5.85,8.95-10.09,16.99-14.09,25.16-3.9,7.95-3.86,7.96,4.07,11.2.14.06.1.58.15.97-.87.97-2.1.77-3.22.79-4.93.11-6.47,3.71-7.31,7.53-.89,4.1,3.13,3.96,5.37,5.22,1.58.89,3.33,1.55,5.07,2.08,1.73.53,3.77,2.45,5.22-.23,1.35-2.48,2.61-5.1.16-7.82-.98-1.1-2.99-1.46-3.06-4.26,5.33,2.11,10.13,4.01,15.65,6.2-2.17,1.5-3.13.89-4.09.84-3.84-.2-5.24,2.41-6.04,5.46-.8,3.06,1.89,3.52,3.75,4.35,2.73,1.22,5.56,2.21,8.37,3.25,1.25.46,2.43.86,3.6-.49,2.64-3.05,2.89-8.23.45-11.53-.69-.94-2.39-1.49-1.42-3.37.66.19,1.38.23,1.87.58,4.23,3.02,6.88,1.76,8.83-2.81,1.43-3.36,3.17-6.62,5.11-9.71,2.37-3.75,1.38-5.68-2.73-6.76-7.2-1.88-13.66-5.19-19.48-11.03M534.36,669.9c-2.1-2.15-4.81-3.02-7.23-1.36-2.68,1.83-.26,4.28.41,6.27,2.66,7.88,5.51,15.71,8.38,23.52,1.98,5.41,4.78,6.79,10.06,4.55,7.2-3.06,14.31-6.34,21.34-9.78,3.19-1.56,6.8-2.62,9.36-5.75-11.51-9.7-20.84-20.21-16.06-37.53-6.51,3.37-12.05,6.38-17.71,9.12-8.16,3.94-8.19,3.85-4.9,12.11.09.22-.19.58-.3.88-1.47.42-1.98-.9-3.35-2.03M325.75,691.61c.32-2.97,1.03-5.95.9-8.9-.38-8.82,5.24-17.76-.44-26.5-.24-.37,1.31-1.29-.42-2.08-4.37-.08-2.85,5.77-6.1,6.93-1.31-.75-.82-1.84-.7-2.74.57-4.28-1.49-6.61-5.47-7.52-6.27-1.43-11.45.79-15.8,5.12-4.56,4.55-7.51,9.9-5.84,16.58.92,3.69,3.71,5.99,7.5,6.41,3.53.39,5.84-1.7,7.6-4.62.71-1.18.47-2.99,2.71-3.82.57,3.87-.73,6.93-2.64,9.81-1.97,2.97-5.45,3.84-8.88,5.6,8.85,5.04,17.15,9.67,26.42,13.19.39-2.72.67-4.68,1.13-7.47M448.67,710.8c.84,1.8,1.52,3.71,2.57,5.37,1.8,2.83,4.47,4.01,7.75,2.92,3.15-1.05,3.48-3.82,3.33-6.56-.25-4.64.51-9.48-3.39-13.95,4.81.15,8.61-1.28,12.79-.43-4.21,7.28-.79,14.51-.81,21.64,0,.48.72,1.3,1.21,1.39,2.98.53,5.94.59,8.69-1.04,2.69-1.6,2.53-4.13,2.02-6.63-1.76-8.63-3.68-17.22-5.41-25.86-.53-2.62-1.95-4.28-3.9-6.05-1.95-1.78-3.52-1.35-5.39-.62-2.14.84-1.5,2.72-1.4,4.31.18,2.8,1.83,5.48,1.05,8.69-2.33-1.23-2.49-3.45-3.52-5.06-2.36-3.69-5.49-5.77-10-5.11-4.32.63-5.98,3.78-6.88,7.56-1.5,6.32-.9,12.54,1.28,19.43M251.86,290.93c1.97-3.91-1.14-2.82-2.83-2.74-14.25.67-24.44-8.53-25.2-22.84-.05-1,.02-2.03-1.75-2.9-3.93,3.81-7.47,8.09-10.12,13.21,11.17,5.95,13.59,9.08,12.39,15.92-2.46-1.77-4.68-3.78-7.25-5.13-4.26-2.24-9.32-1.27-11.8,1.99-3.1,4.07-1.75,7.91,1.11,11.35,4.26,5.13,9.75,8.55,16.19,10.22,5.1,1.33,10.74-1.61,13.3-6.59,2.25-4.38,1.35-7.21-3.62-11.58-.81-.72-2.13-1.11-1.84-3.01,6.59.89,9.56,6.37,13.38,10.75,3.81-1.87,5.17-5.52,8.05-8.66M600.22,655.32c-2.65-3.2-5.18-6.52-7.98-9.58-2.95-3.22-5.04-7.41-10.05-8.44-1.2-.25-1.89-.86-2.75.3-.76,1.03-.3,1.87.41,2.65,1.23,1.35,2.63,2.57,3.69,4.04,3.1,4.3,3.1,10.59.14,13.88-4.95-8.37-5.4-8.94-8.07-10.23-6.65-3.21-12.68.45-11.93,7.68.87,8.34,4.99,15.13,12.15,19.64,4.2,2.65,10.44,1.62,13.89-1.81,3.54-3.51,2.97-7.44,1-11.48-.47-.96-1.47-1.87-.75-3.16,4.46,2.54,4.89,3.44,7.4,15.69,1.63.13,2.71-1.02,3.9-1.82,7.77-5.26,7.95-6.51,1.99-13.78-.84-1.03-1.72-2.03-3.04-3.58M163.43,405.54c-1.17,2.25-.82,4.46-.04,6.75,3.26,9.55,16.45,14.89,25.73,10.41,2.03-.98,3.59-2.41,4.7-4.32,3.23-5.58-.21-11.88-6.62-12.31-1.4-.09-2.93.9-4.88-.92,6.93-3.21,12.67-1.84,17.92,2.9,2.11-5.87,1.71-9.34-1.8-10.31-10.25-2.83-20.6-5.34-31.01-7.51-3.47-.72-6.83,3.36-6.68,7.19.19,4.63,3.73,2.48,6,2.87.91.15,2.04-.51,2.67.9-1.6,1.63-4.27,1.72-6,4.35M235.07,580.65c-3.07,1.29-2.41-.48-1.51-1.99,2.61-4.4.34-7.25-2.99-9.7-8.1-5.94-23.75-1.53-27.34,7.82-1.59,4.15-1.39,8.35,2.57,11.25,3.61,2.63,7.17,1.86,10.45-.97.78-.67,1.4-2.05,2.86-1.09-2.6,5.72-3.39,6.16-15.89,8.83.26,2.81,2.27,4.72,3.7,6.84,3.31,4.92,5.43,5.24,10.15,1.52,6.79-5.35,13.35-11.01,20.3-16.14,2.76-2.04,2.39-5.28,4.14-7.63.56-.76-.81-2.23-2.22-1.59-1.34.6-2.48,1.64-4.21,2.87M668.96,604c5.65-4.37,5.67-7.82-.13-11.41-6.92-4.29-13.93-8.43-20.91-12.61-7.76-4.64-17.01.8-17.29,10.07-.07,2.37.63,4.14,2.52,5.6,7.62,5.9,15.18,11.87,22.79,17.79,1.14.89,2.2,2.07,3.94.88,3.23-2.21,4.86-7.19,3.57-11.05-.37-1.12-1.76-2.16-.31-3.85,1.76,1.48,3.49,2.94,5.84,4.58M422.62,683.86c-3.68-3.92-8.72-3-13.18-3.13-2.57-.07-5.22,2.04-5.68,5.4-1.32,9.71-2.71,19.42-3.99,29.13-.19,1.42-.44,2.97,1.33,3.9,3.89,2.04,8.22,1.22,11.3-2.21.79-.88.96-2.57,2.82-2.3.85,2.53-1.6,4.75-.67,7.23,6.12,1.56,8.3.19,8.65-5.59.56-9.13,1-18.26,1.55-27.39.11-1.79-.38-3.27-2.13-5.04M396.66,187.77c-.8-6.08-1.66-12.14-2.39-18.23-.41-3.43-2.76-5.58-5.61-5.18-7.94,1.1-15.87,2.62-24.17,5.72,4.16,6.22,7.91,11.86,11.7,17.47,2.88,4.27,5.56,8.7,8.77,12.71,2.2,2.74,5.49,5.81,8.96,4.56,3.98-1.43,4.7-5.5,3.48-9.74-.58-2.03-.39-4.28-.74-7.31M690.76,342.65c5.63-5.34,6.93-10.09,4.2-15.36-2.77-5.36-7.98-7.18-15.5-5.44-5.93,1.37-11.28,3.96-15.89,7.93-4.4,3.79-5.67,9.13-3.49,13.82,2.31,4.99,7.37,7.51,13.25,6.53,6.16-1.02,11.8-3.35,17.43-7.48M256.81,260.78c-4.23-4.29-8.64-8.35-14.7-9.9-4.43-1.13-8.3-.02-11.27,3.44-3.05,3.56-4.1,7.62-1.85,12.01,3.95,7.7,9.98,13.33,17.99,16.48,4.67,1.84,9.23,1.01,12.68-3.08,3.41-4.04,3.4-8.55,1.27-13.07-.91-1.93-2.41-3.57-4.12-5.87M710.99,394.13c4.36,1.15,6.19,4.71,7.83,8.46-1.81-9.98-3.1-19.97-6.04-30.34-.48,11.95-9.93,15.84-21.41,8.9-4.65,5.9-14.52,7.27-15.16,17.36,2.52.43,4.31-.72,6.25-.92,1.86-.2,3.62-1.87,6.01-.28-2.66,2.43-6.19,3.51-8.16,6.5-2.81,4.26-2.09,10.16,1.68,12.48,3.67,2.26,7.8.57,10.42-4.59,1.81-3.55,3.1-7.37,4.87-10.94,2.83-5.71,6.44-7.53,13.73-6.63M309.48,228.11c1.65,1.84,2.04,5.81,5.43,4.82,5.89-1.72,8.26-6.18,6.45-13.82,3.28,3.13,3.36,6.52,6.16,7.78,3.36-2.41,2.68-5.35,1.32-8.41-3.44-7.75-6.85-15.51-10.31-23.26-2.83-6.36-6.48-6.83-11.7-1.34.68,1.04,1.46,2.09,2.09,3.23.65,1.19,2.39,1.98,1.63,3.77-1.45.58-2.21-.53-3.15-1.11-3.83-2.35-8.18-1.85-11.26,1.42-2.79,2.96.69,4.73,1.53,6.94.7,1.84,1.86,3.53,2.97,5.18,1.07,1.58,1.98,3.77,4.64,2.37,2.39-1.26,4.87-2.45,4.38-5.87-.19-1.34-1.47-2.68-.09-4.09,4.43,4.56,7.65,10.36,7.77,13.96-7.05-4.76-7.79-4.74-12.41.59,1.36,2.35,2.77,4.78,4.56,7.83M287.19,248.31c.75,1.39.76,3.34,3.05,3.81,4.31-2.24,8.33-5.22,12.07-8.48,2.42-2.12,3.97-5.27,2.14-8.49-4.87-8.52-9.94-16.93-15.07-25.3-1.57-2.57-4.1-3.29-6.98-2.24-5.33,1.96-7.77,7.14-5.81,12.45,3.4,9.21,6.86,18.39,10.6,28.25M353.71,694.54c-2.88,4.12-6.8,7.55-9.02,12.81,6.82,2.56,13.14,5,19.83,6.17,2.92.51,5.87.06,6.74-3.5,2.37-9.65,4.9-19.27,6.74-29.02.72-3.81-.69-7.6-3.64-7.85-10.25,5.18-14.18,13.92-20.65,21.39M424.07,160.06c-3.76.46-5.77,2.58-5.38,6.36,1.08,10.38,2.29,20.75,3.54,31.12.15,1.25.3,2.68,1.61,3.5,5.32,3.3,13.88-.78,14.57-6.93,1.01-9.12.48-18.27.6-27.41.02-1.7.7-3.95-1.74-4.64-2.33-.66-4.15.47-5.67,2.25-1.06,1.23-1.08,3.39-3.13,3.96-.78-1.74-.52-3.28-.17-4.68.81-3.24-.86-3.78-4.23-3.52M512.02,676.86c-.6,1.18.16,2.96-1.42,3.79-2.73-1.93-.41-6.69-4.9-7.67-.65,2.82-2.58,5.02-1.88,8.12,2.04,9.06,3.94,18.14,5.83,27.23.84,4.01,3.1,5.63,7.17,4.78,9.6-2.01,14.29-5.22,12.88-9.59-3.45-10.68-7.5-21.17-11.23-31.53-3.69-.06-5.21,1.74-6.45,4.88M257.33,236.22c-7.12-3.9-14.23-.45-18.53,9.18,17.69-.45,27.25,8.29,28.61,26.71,7.38-5.14,12.87-10.91,19.26-17.08-10.03-6.43-19.38-12.41-29.34-18.81M645,294.82c6.19-3.92,12.34-7.89,18.58-11.72,3.43-2.1,4.66-5.15,2.74-8.44-2.7-4.63-6-8.96-10.24-12.85-1.08,7.96-5.98,14.29-11.93,13.56-5.63-.7-6.79,2.44-8.5,6-.94,1.95-1.9,3.89-2.86,5.83-1.73,3.48-2.26,7.46.21,10.27,3.14,3.58,6.64,1,9.7-1.18.54-.39,1.12-.71,2.29-1.46M345.73,175.58c-3.63,1.24-7.54,2.81-5.63,7.57,4.01,10.01,8.5,19.82,12.9,29.66,1.11,2.48,3.14,3.27,5.04,2.45,3.96-14.68,2.25-29.3,4.01-44.19-6.11.46-10.74,2.82-16.32,4.5M501.21,168.36c-5.97-.17-10.02,2-11.36,6.08-1.53,4.65.59,11.71,4.44,14.47,2.11,1.51,4.58,2.66,6.91.9,2.41-1.83,3.34-4.71,2.39-7.6-.61-1.86-2.15-3.42-3.41-5.31,5.79.2,9.67,3.15,10.3,7.77.6,4.41.09,8.27-5.18,9.75-3.67,1.03-7.18,1.29-10.64-.56-3.28-1.76-5.03-4.85-6.74-7.99.73,5.37,1.81,10.55,4.82,15.1,3.1,4.69,7.18,6.43,12.41,5.29,4.54-.99,8.28-5.24,8.79-10.32.23-2.31.42-4.73-.03-6.97-1.63-8.13-2.64-16.74-12.7-20.6M679.37,299.57c-3.89,5.99-8.57,10.28-16.44,7.4-1.68-.61-2.45.46-3.22,1.57-1.42,2.05-2.71,4.19-4.24,6.15-5.64,7.23-5.8,11.8.24,20.47,1.29-8.53,5.71-14.35,13.32-18,7.7-3.69,15.18-2.51,22.95.55-3.2-8.24-6.99-15.58-12.12-22.83-.12,1.8-.19,2.94-.49,4.68M256.72,606.75c-7.68,6.11-15.43,12.13-23.01,18.35-4.2,3.45-4.05,5.39.11,9.88,3.82,4.12,6.45,4.38,10.05.63,6.23-6.48,12.34-13.07,18.48-19.64.68-.72,1.52-1.47,1.79-2.36.84-2.76,2.14-6.03-1.04-7.85-1.35-.77-3.82.4-6.38.98M697.09,344.67c-3.41,5.99-8.68,9.4-15.19,11.28-6.61,1.9-12.61.38-18.78-3.44,1.29,3.64,2.16,6.68,3.45,9.53,1.68,3.71,4.42,5.59,8.78,4.4,8.66-2.34,17.38-4.44,26.04-6.8,4.83-1.32,6.45-4.25,4.89-9.01-1.95-5.95-4.22-11.79-6.36-17.67.23,4.03-.97,7.56-2.82,11.71M200.71,357.94c-6.98-2.7-13.91-5.5-20.94-8.05-4.09-1.49-7.06.13-8.58,4.22-1.65,4.46-.44,7.79,3.73,9.33,2.63.97,5.44,1.49,8.18,2.16,6.62,1.61,13.23,3.22,19.87,4.74,3.14.72,6-.45,7.04-3.31,1.05-2.9-.45-5.49-3.49-6.78-1.68-.72-3.38-1.38-5.81-2.3M378.74,712.21c-.13,5.31,3.76,6.22,7.65,6.52,3.78.29,5.61-2.12,6.08-5.77,1.18-9.19,2.53-18.36,3.62-27.56.52-4.4-1.65-7.17-5.31-8.13-5,3.01-5.68,7.8-6.77,12.39-1.72,7.25-3.44,14.51-5.27,22.54M629.44,646.32c4.17.76,6.67-1.69,8.37-4.87,1.8-3.35.05-6-2.52-8.28-2.12-1.87-4.11-3.89-6.16-5.83-4.47-4.23-8.97-8.43-13.4-12.7-2.43-2.35-5.26-1.79-7.92-.97-1.24.38-2.16,1.81-3.39,2.92,1.32.32,1.87-1.37,2.94-.43-.59,4.8,9.35,18.66,22.09,30.16M521.08,181.94c1.73,12.9-3.56,22.02-15.47,27.45,2.55,2.27,5.31,2.48,7.81,3.28,4.49,1.43,7.97-.11,9.79-4.35,3.68-8.55,7.16-17.19,10.55-25.86,1.45-3.71.18-6.56-3.72-7.89-4.67-1.59-9.31-3.35-14.81-4.24,1.37,2.04,2.59,3.56,3.46,5.26.9,1.75,1.46,3.69,2.4,6.35M615.39,244.27c2.59-2.8,5.34-5.47,7.72-8.44,2.54-3.16,1.51-7.07-2.09-9.81-3.49-2.65-6.21-2.24-8.72,1.46-4.47,6.59-9,13.14-13.79,19.49-2.71,3.6-4.8,7.05-2.35,11.83,3.07,1.46,5.65.47,8.01-2.26,3.47-4.01,7.14-7.85,11.22-12.28M652.59,626.15c1.05-3.05.29-5.47-2.32-7.46-7.27-5.57-14.52-11.18-21.7-16.88-2.96-2.35-6.25-2.52-8.48.09-2.18,2.56-.91,5.48,1.63,7.85,6.22,5.79,12.23,11.8,18.4,17.64,4.86,4.59,7.47,4.4,12.45-1.24M634.87,240.04c-3.13-1.08-5.35.2-7.42,2.52-5.74,6.45-11.55,12.83-17.43,19.15-2.2,2.37-4.22,4.94-1.42,7.71,2.7,2.68,5.85,2.21,8.8-.45,6.41-5.78,12.99-11.37,19.48-17.07,5.38-4.72,5-8.01-2-11.87M445.39,723.51c1.23-.16,2-.66.87-1.83-5.55-5.79-7.12-12.93-7.25-20.63-.13-7.85,2.6-14.27,10.32-18.96h-4.66c-10.82.04-12.74,1.96-12.98,13.08-.11,4.99.43,10.09-.4,14.95-2.23,13.07.83,14.03,14.09,13.39M662.66,579.86c4.9,2.69,9.32,6.25,14.59,8.39,3.75-3.7,3.56-7.33.46-10.75-5.95-6.55-13.38-10.9-21.86-13.2-4.92-1.34-7.84.65-9.44,5.77,5.15,3.1,10.4,6.25,16.26,9.78M397.6,176.63c.73,6.59,1.44,13.18,2.18,19.77.44,3.92,2.33,6.78,6.5,6.85,3.4.06,6.88-.39,10.99-2.32-6.67-9.85-13.13-19.37-19.58-28.89-.26.16-.53.31-.79.47.21,1.12.43,2.25.7,4.12M345.18,220.23c1.74-.96,5.08-1.72,2.13-4.31-7.43-6.53-14.9-13.07-23.32-18.36-.13-.08-.53.27-1.38.74,3.25,7.32,6.35,14.77,9.88,22,1.29,2.64,4.25,2.97,6.98,2.24,1.74-.47,3.38-1.34,5.71-2.31M606.7,214.58c-3.77-2.19-6.68-5.85-11.46-7.02-2.94,8.34-5.64,16.4-7.97,26.09,8.4-5.03,14.92-10.25,21.27-15.67,1.57-1.34-.45-2.19-1.84-3.4M277.01,228.48c-.64-1.7-1.26-3.42-1.94-5.11-2.7-6.71-5.32-7.32-11.04-2.62-5.5,4.53-5.36,6.88.67,10.93,1.51,1.01,3.01,2.08,4.62,2.92,3.38,1.77,5.99,5.18,10.51,5.21.76-4.13-1.74-7.18-2.83-11.33M342.97,696.83c-.11-5.94,1.78-11.8,1.06-18.41-5.76,7.46-11.11,14.38-16.75,21.69,4.66,3.11,9.33,4.4,14.22,5.89.52-3.11.95-5.7,1.47-9.17M575.45,241.81c4.23-8.81,6.21-18.33,9.6-28.53-5.82,4.89-11.62,8.09-15.1,13.79-4.22,6.91-2.54,11.91,5.51,14.73M497.03,684.54c-1.37-5.34-4.63-8.28-8.18-7.37-3.29.84-4.92,5.03-3.9,10.14.39,1.95.99,3.88,1.24,5.85.48,3.71,2.14,4.52,5.82,3.61,7.3-1.82,7.36-1.58,5.75-9-.18-.81-.41-1.61-.73-3.21M489.52,708.29c.43,1.93.76,3.89,1.32,5.79.82,2.83,3.08,3.89,5.74,3.73,2.63-.16,5.21-1.58,5.61-4.16.77-4.98-1-9.77-2.44-14.49-.34-1.11-1.6-1.26-2.55-1.02-2.99.74-6.28.5-9.26,2.74.45,2.16.91,4.4,1.57,7.41M184.04,382.87c.49-2.09.95-4.19,1.48-6.27.41-1.61-.2-2.65-1.72-3.01-3.86-.91-7.71-1.96-11.63-2.48-2.78-.37-5.06,1.26-6.62,3.54-1.77,2.59.42,4.4,1.69,6.14,1.7,2.33,13.12,5.08,15.79,4.02.38-.15.56-.78,1.01-1.94M189.36,387.42c2.59.63,5.17,1.27,7.76,1.87,4.16.97,7.41,0,8.4-4.59.95-4.36-1.61-6.45-5.48-7.39-2.26-.55-4.55-.98-6.8-1.57-2.15-.56-4.85-1.44-5.2,1.64-.37,3.22-4.69,6.96,1.32,10.03M603.35,628.23c-2.03-3.17-5.17-3.51-8.33-2.74-2.51.61-2.52,3.3-2.95,5.35-.47,2.21,7.24,12.67,9.52,13.25.93.23,1.7-.05,2.28-.63,2.11-2.07,4.94-3.37,6.83-6.35-2.29-2.77-4.59-5.56-7.35-8.87M237.72,606.73c1.2,1.26,2.13,3.37,4.39,1.57,3.12-2.5,6.29-4.94,9.26-7.61,2.14-1.92,1.8-4.59,1.08-7-.79-2.62-3.29-2.45-5.4-2.66-3.66-.38-5.64,2.5-8.07,4.39-6.1,4.75-6.06,4.8-1.25,11.32M609.39,654.21c1.22,1.34,2.31,2.85,3.69,4,2.46,2.06,5.09,1.31,7.25-.45,2.17-1.78,3.46-4.39,1.66-6.98-2.69-3.88-5.7-7.57-9.39-10.91-3.03,2.64-6.29,4.29-8.39,7.26.94,2.81,3.1,4.48,5.17,7.08M218.69,612.37c-1.27,3.11-.04,5.59,2.3,7.46,1.73,1.38,3.86,2.01,5.98.45,3.7-2.75,7.63-5.24,10.59-8.76-4.86-9.45-6.15-9.79-14.05-3.69-1.57,1.21-2.97,2.64-4.82,4.54M331.84,181.23c-3.18.82-6.21,1.94-9.3,4.55,7.72,6.22,15.1,12.17,22.49,18.12.32-.28.63-.55.95-.83-2.5-5.73-5.09-11.42-7.47-17.2-1.14-2.77-2.95-4.33-6.66-4.64M408.01,161.21c-2.2.47-4.4.94-7.54,1.6,5.68,7.8,10.03,15.59,16.86,21.95.15-5.54-.67-10.82-1.04-16.14-.35-4.87-2.94-7.07-8.28-7.41M350.89,692.85c5.25-4.33,8.52-10.33,12.95-15.34,1.65-1.87,2.19-3.93.81-5.87-1.85-2.6-4.86-3.31-7.87-3.05-2.46.21-3.69,2.15-3.96,4.48-.75,6.42-1.39,12.85-1.93,19.78M336.09,684.57c2.66-3.4,5.47-6.69,7.94-10.22,2.86-4.09,2.27-7.8-1.36-11.07-2.49-2.24-5.49-1.8-6.09,1.41-1.34,7.07-2.06,14.25-3.04,21.38.31.1.63.2.94.3.41-.44.82-.88,1.61-1.81M585.39,248.22c1.25.25,2.5-.07,3.19-1.01,4.81-6.52,9.53-13.11,14.27-19.68-.36-.3-.71-.59-1.07-.89-7.63,5.86-15.27,11.73-22.97,17.65,2.37,2.43,4.1.04,5.36.59,1.14,1.19-1.31,2.43,1.22,3.33M365.92,201.87c-4.44.88-3.63,4.43-2.97,7.07.75,3.02,3.36,3.69,6.34,2.59,1.85-.69,3.81-1.09,5.67-1.74,2.88-1,3.75-3.24,2.87-5.92-.89-2.69-2.59-4.69-5.93-3.76-1.75.49-3.48,1.02-5.98,1.76M699.09,368.04c-2.37.98-5.31.66-7.09,3.02.6,4.01,3.07,6.14,6.77,6.16,3.92.03,7.61-1.13,9.57-5.08.84-1.69,1.23-3.62.04-5.21-1.13-1.52-2.75-.44-4.15-.12-1.46.33-2.9.72-5.13,1.22M671.78,287.72c-5.19,2.07-9.73,5.1-13.96,8.7,3.8,4.69,7.49,5.3,11.95,2.42,4.38-2.83,5.12-5.94,2-11.12M648.54,263.1c1.21-3.17,1.24-6.08-1.98-8.68-4.5,3.23-8.64,6.66-12.42,10.5,4.46,5.48,8.66,5.02,14.4-1.82M683.36,378.23c2.13-1.9,5.13-2.99,6.21-6.71-4.44-.56-8.06,1.22-11.75,2.14-6.43,1.6-7.56,5.24-3.47,11.07,2.81-2.03,5.62-4.06,9.02-6.5M619.79,278.31c-.19,3.34.42,6.26,4.39,8,3.26-6,7.05-11.6,7.96-18.65-4.65,2.79-8.86,5.84-12.35,10.66M641.67,307.65c-.2,2.92.18,5.59,3.51,7.43,4.26-4.95,8.36-9.94,10.34-16.47-5.15,2.02-10.05,4.13-13.85,9.04M368.74,189.8c-1.38-1.96-2.76-3.92-4.75-6.76-.66,6.18-1.93,11.11-.9,16.41,3.64.14,6.74-.83,9.89-3.04-1.4-2.17-2.64-4.09-4.23-6.62M464.75,718.48c-1.92.54-2.56,2-3.04,3.81,2.09.42,3.8.44,5.45-.42.28-1.66-.97-2.3-2.41-3.39Z"/>
          <path d="M389.35,624.12c-7.83-.01-15.16.03-22.49-.05-7.62-.08-11-2.74-11.49-10.15-.49-7.3-.44-14.67-.03-21.97.37-6.55,3.89-9.39,10.49-9.51,3.83-.07,7.66-.03,11.5-.03,2.09,0,3.64-.65,3.68-3.06.09-5.66.73-11.36-.25-16.96-1.58-9.07-7.26-14.65-15.81-17.66-8.24-2.9-9.32-5.25-8.29-13.75,1.97-16.34,3.59-32.71,5.37-49.07.59-5.45,1.18-10.91,1.89-16.35.47-3.56-.36-5.76-4.5-5.96-9.81-.47-19.6-1.16-29.4-1.72-.98-.06-2.02-.03-3.13,1.43,3.22,12.17,9.29,23.84,12.75,36.34-.37.3-.74.61-1.11.91-10.25-8.2-20.5-16.41-31.5-25.2-4.92,13.72-6.7,27.24-10.8,40.06-.49.05-.97.1-1.46.15-3.37-13.13-6.73-26.27-10.44-40.74-11.43,9.12-21.72,17.33-32.15,25.65-1.59-2.68-.1-4.22.5-5.8,3.42-9.03,6.99-18,10.39-27.04,1.88-5.02,1.26-5.94-4.18-5.73-9.81.39-19.61,1.01-29.42,1.57-1.62.09-3.3.7-4.53-.95.51-2.2,2.44-2.73,3.93-3.68,8.14-5.21,16.32-10.35,24.43-15.6,4.99-3.23,4.92-4.19-.19-7.52-8.38-5.45-16.77-10.88-25.14-16.33-1.09-.71-2.46-1.12-3.16-3.54,13.27-.78,26.22,2.66,40,1.56-3.71-12.97-9.46-24.57-13.33-36.79.42-.34.83-.69,1.25-1.03,10.17,8.03,20.35,16.05,31.61,24.93,3.69-14.27,7.05-27.29,10.41-40.31.46,0,.92.02,1.38.02,4.4,12.66,6.04,26.17,10.93,39.79,11.02-8.43,21.35-16.34,31.68-24.25.47.29.93.58,1.4.87-4.48,11.93-8.95,23.86-13.72,36.56,13.65,1.03,26.22-1.97,38.84-1.62.23.52.47,1.03.7,1.55-11.13,7.23-22.27,14.45-33.76,21.91,3.31,3.5,7.2,5.3,10.78,7.52,5.53,3.41,11.08,6.77,16.61,10.2,3.21,1.99,5.17,1.75,5.62-2.57,1.21-11.74,2.59-23.46,3.83-35.19.47-4.46.69-8.95,1.15-13.42.32-3.08-.47-4.83-3.87-5.74-6.17-1.65-9.82-7.6-8.82-13.28,1.12-6.36,5.92-10.51,12.7-10.28,4.29.15,6.3-1.23,7.14-5.6,1.2-6.25,6.74-9.16,11.87-12.9-10.18-15.8-14.18-32.57-8.63-50.94,3.94-13.03,10.98-23.74,22.03-31.85,21.58-15.84,51.57-15.75,73.21.57,12.82,9.66,20.27,22.55,23.04,38.41,2.8,16.02-1.58,30.24-10.29,43.63,4.03,3.12,9.3,4.66,10.76,9.22,2.14,6.69,5.82,9.64,12.96,10.05,5.1.3,8.1,5.1,8.4,10.35.33,5.61-1.65,9.71-6.96,11.35-4.79,1.48-5.54,4.1-5.09,8.46,2.65,25.29,5.15,50.6,7.68,75.91,1.81,18.2,3.77,36.38,5.28,54.6.62,7.42-.42,8.3-7.47,10.89-11.55,4.24-17.23,12-17.34,24.67-.12,14.76-1.5,12.27,11.85,12.59,2.15.05,4.32.28,6.45.66,4.97.89,7.55,3.99,7.6,9.02.08,8,.13,16,0,23.99-.09,5.44-3.23,8.5-8.85,8.67-5.83.18-11.66.07-17.49.07h-106.97M384.59,404.28c-.31,2.81-.64,5.62-.93,8.43-1.8,17.54-3.55,35.09-5.41,52.62-2.12,20.01-4.33,40.01-6.54,60.01-.34,3.05.71,4.92,3.57,6.31,10.32,5.02,17.18,13.14,19.81,24.34,1.07,4.58,3.42,5.67,7.72,5.64,24.33-.15,48.66-.16,72.99,0,4.17.03,6.29-1.12,7.31-5.41,2.6-10.95,8.85-19.32,19.24-24.11,3.32-1.53,4.14-3.73,3.79-7.16-1.86-18.2-3.54-36.41-5.33-54.62-2.22-22.51-4.53-45.01-6.69-67.52-.59-6.18-.84-6.65-7.22-6.66-31.66-.02-63.33-.02-94.99,0-6.33,0-6.93.66-7.3,8.13M422.91,318.55c22.14-10,39.75-1.17,49.72,24.93,8.6-6.67,11.82-23.69,7.06-37.35-5.88-16.85-22.88-28.78-40.67-28.54-18.84.26-35.54,12.2-41.12,29.42-4.32,13.32-1.27,29.75,6.97,35.84,2.97-10.1,7.65-18.91,18.03-24.31M268.88,437.89c.25,1.14.51,2.27.75,3.41,3.18,14.84,18.2,23.99,32.72,19.92,13.6-3.81,21.91-18.42,18.08-31.76-3.98-13.85-18.42-22.12-32.02-18.35-11.68,3.24-18.33,12.05-19.53,26.77h0Z"/>
          <path d="M591.96,509.33c-30.66-9.79-45.98-31.39-51.12-61.97-5.95-35.37,20.95-71.63,53.15-78.45,15.05-3.19,29.77-2.21,43.96,4.11,1.31.58,2.94.81,3.67,3.13-30.98,9.1-49.78,29.78-48.06,62.25,1.92,36.07,24.46,54.7,60.46,56.9-5.2,10.11-36.13,22.52-62.07,14.04h0Z"/>
          <path d="M526.81,316.42c-2.21-3.58-5.15-5.7-8.76-6.83-3.28-1.03-6.63-1.84-10.07-3.37,5.68-2.87,12.62-2.79,17.03-7.98,4.49-5.29,3.89-12.14,5.88-19.67,3.33,6.88,2.1,13.99,6.31,19.27,4.42,5.55,11.23,5.78,17.31,8.25-5.98,2.68-12.85,2.74-17.28,8.14-4.19,5.09-3.58,11.75-5.85,18.81-2.64-6.07-1.87-11.64-4.57-16.62h0Z"/>
          <path d="M449.95,544.34c1.16-3.04,2.29-5.81,3.65-8.47,4.51-8.85,3.42-17.27-2.57-24.8-8.57-10.77-10.47-22.64-7.54-35.76.92-4.14,1.33-8.47-.94-12.44-.63.11-1.13.06-1.22.24-4.84,8.91-10.81,17.25-14.39,26.78-4.37,11.61-3.31,22.86,3.52,33.43,1.05,1.62,2.7,3,2.75,5.69-5.78-.79-8.41-6.17-13.41-8.83-3.52,11.08,5.37,18.87,6.36,28.6-7.77-8.88-19.57-13.52-24.98-24.44-7.4-14.93-5.49-29.73,2.04-44.05,5.06-9.63,12.29-17.81,18.56-26.62,5.45-7.65,9.99-15.67,11.73-25.12.94-5.1.18-9.93-.82-14.83-.33-1.6-1.07-3.14-.37-5.8,9.44,4.75,15.68,12.14,20.67,20.79,5.06,8.76,8,18.25,9.29,28.27,1.3,10.08-.82,19.8-3.55,30.07,6.91-2.22,8.1-8.42,11.27-13.76,6.39,7.97,10.05,16.45,11.55,25.68,3.98,24.5-13.09,39.09-26.89,45.31-1.42.64-2.96,1.74-4.7.08v-.02Z"/>
          <path d="M335.26,317.47c-2.21-3.58-5.15-5.7-8.76-6.83-3.28-1.03-6.63-1.84-10.07-3.37,5.68-2.87,12.62-2.79,17.03-7.98,4.49-5.29,3.89-12.14,5.88-19.67,3.33,6.88,2.1,13.99,6.31,19.27,4.42,5.55,11.23,5.78,17.31,8.25-5.98,2.68-12.85,2.74-17.28,8.14-4.19,5.09-3.58,11.75-5.85,18.81-2.64-6.07-1.87-11.64-4.57-16.62h0Z"/>
        </g>
      </g>
    </mask>
  </defs>
  <g class="cls-1">
    <image width="4096" height="4096" transform="scale(.22)" xlink:href="foiltexture.png"/>
  </g>
</svg>